<svg width="135" height="26" viewBox="0 0 135 26" fill="none" xmlns="http://www.w3.org/2000/svg">
<path d="M5.70412 0.907227H0V25.3132H5.70412V0.907227Z" fill="#A5A5A5"/>
<path d="M5.50391 10.6927H12.958V14.4551H5.50391V10.6927ZM5.50391 20.9732H12.958V25.3132H5.50391V20.9732ZM5.50391 0.907227H12.958V5.24716H5.50391V0.907227Z" fill="#A5A5A5"/>
<path d="M58.7083 12.8874H53.7445V25.2967H58.7083V12.8874ZM42.0166 0.907227H47.0813V25.2967H42.0166V0.907227ZM26.0484 2.34287H36.3125V5.34617H26.0484V2.34287ZM121.992 14.4551C121.992 14.4551 122.531 10.6927 126.367 10.6927C130.203 10.6927 130.17 14.4551 130.17 14.4551H121.992ZM126.266 7.11185C116.692 7.11185 116.709 16.4848 116.709 16.4848C116.709 16.4848 116.052 25.8082 126.266 25.8082C126.266 25.8082 134.78 26.2868 134.78 19.3231H130.405C130.405 19.3231 130.557 21.9468 126.417 21.9468C126.417 21.9468 122.043 22.2274 122.043 17.7059H134.932C134.932 17.7059 136.345 7.11185 126.266 7.11185ZM27.1085 14.4551C27.1085 14.4551 27.6469 10.6927 31.4833 10.6927C35.3197 10.6927 35.2861 14.4551 35.2861 14.4551H27.1085ZM31.3992 7.11185C21.825 7.11185 21.8418 16.4848 21.8418 16.4848C21.8418 16.4848 21.1856 25.8082 31.3992 25.8082C31.3992 25.8082 39.9133 26.2868 39.9133 19.3231H35.5384C35.5384 19.3231 35.6899 21.9468 31.5506 21.9468C31.5506 21.9468 27.1758 22.2274 27.1758 17.7059H40.0647C40.0647 17.7059 41.4781 7.11185 31.3992 7.11185ZM12.9407 25.3132C12.9407 25.3132 20.8491 25.5607 20.8491 18.102C20.8491 18.102 21.1856 12.0458 16.1882 12.0458C16.1882 12.0458 19.9909 11.7653 19.9909 7.40888C19.9909 3.05244 16.8781 0.907227 12.9575 0.907227C9.03699 0.907227 9.22208 3.06894 9.22208 3.06894L12.0152 5.23066H12.9407C12.9407 5.23066 14.7075 5.23066 14.7075 7.77192C14.7075 10.3132 13.6642 10.6762 12.5032 10.6762C11.3422 10.6762 10.8879 12.5574 10.8879 12.5574L12.9575 14.4386C12.9575 14.4386 15.5824 14.4056 15.5824 17.7884C15.5824 21.1713 12.8229 20.9567 12.133 20.9567C11.4432 20.9567 11.6451 22.6894 11.6451 22.6894L12.9575 25.2967L12.9407 25.3132Z" fill="#A5A5A5"/>
<path d="M96.3294 12.8875H91.3656V25.2967H96.3294V12.8875ZM79.6376 7.3759H84.7024V25.2967H79.6376V7.3759ZM53.6746 12.8875C53.6746 12.8875 53.6746 11.0228 50.5281 11.0228C47.6003 11.0228 47.0787 13.267 47.0787 15.4122C47.0787 17.5574 46.7422 10.6927 46.7422 10.6927C46.7422 10.6927 48.3407 7.11188 52.6314 7.11188C56.9221 7.11188 58.7057 10.1482 58.7057 13.135C58.7057 16.1218 56.9894 14.6861 56.9894 14.6861L53.6915 13.9106V12.8875H53.6746Z" fill="#A5A5A5"/>
<path d="M115.916 18.399H110.683C110.683 18.399 110.818 22.0129 107.386 22.0129C103.953 22.0129 103.044 18.4155 103.044 16.3363C103.044 14.2571 103.751 10.7752 107.436 10.7752C111.121 10.7752 110.986 13.8776 110.986 13.8776H115.58C115.58 13.8776 115.9 7.11188 107.503 7.11188C99.107 7.11188 98.1983 13.7951 98.1983 16.4683C98.1983 19.1416 99.6286 25.9073 107.386 25.9073C115.142 25.9073 115.916 19.7686 115.916 18.3825V18.399ZM72.3868 19.7852C72.3868 19.7852 71.9661 22.4749 68.3148 22.4749C68.3148 22.4749 65.3197 22.6069 65.3197 20.0822C65.3197 20.0822 65.0673 18.1515 69.2571 17.5244C70.9229 17.3924 71.6969 17.2769 72.3868 16.5178V19.7852ZM77.9563 25.2967C77.9563 25.2967 77.014 24.8182 77.014 21.9304V11.4848C77.014 11.4848 77.6197 7.12838 69.6104 7.12838C61.6011 7.12838 61.0963 11.0723 61.0458 13.4155H66.3966C66.3966 13.4155 66.1778 10.2967 69.5599 10.2967C69.5599 10.2967 72.4372 10.0657 72.4372 12.8875C72.4372 12.8875 72.4372 14.7356 69.8292 14.9007C67.2211 15.0657 60.5747 15.0327 60.5747 20.3132C60.5747 20.3132 60.4064 25.8908 66.4975 25.8908C66.4975 25.8908 70.6705 25.9733 72.4372 23.4485V25.2637H77.9563V25.2967ZM91.3164 12.8875C91.3164 12.8875 91.3164 11.0228 88.1698 11.0228C85.2421 11.0228 84.7204 13.267 84.7204 15.4122C84.7204 17.5574 84.3839 10.6927 84.3839 10.6927C84.3839 10.6927 85.9824 7.11188 90.2731 7.11188C94.5638 7.11188 96.3474 10.1482 96.3474 13.135C96.3474 16.1218 94.6311 14.6861 94.6311 14.6861L91.3332 13.9106V12.904L91.3164 12.8875Z" fill="#A5A5A5"/>
</svg>
