<svg width="184" height="31" viewBox="0 0 184 31" fill="none" xmlns="http://www.w3.org/2000/svg">
<path d="M102.894 15.1829C102.894 16.1808 102.894 17.1787 102.894 18.1766C102.894 18.2716 102.941 18.3825 103.004 18.4458C103.179 18.6517 103.385 18.826 103.575 19.016C103.638 19.0636 103.717 19.1111 103.796 19.1111C105.269 19.1111 106.727 19.1111 108.2 19.1111C108.279 19.1111 108.358 19.0636 108.422 19.016C108.612 18.8418 108.786 18.6517 108.96 18.4775C109.071 18.3825 109.087 18.2716 109.087 18.1449C109.087 16.3392 109.071 14.5335 109.087 12.7278C109.087 12.2843 109.023 11.92 108.643 11.6507C108.564 11.6032 108.501 11.524 108.437 11.4448C108.342 11.3339 108.247 11.3181 108.121 11.3181C106.885 11.3181 105.665 11.3181 104.43 11.3181C104.145 11.3181 103.828 11.2547 103.59 11.3497C103.353 11.4448 103.179 11.714 102.989 11.92C102.925 11.9833 102.878 12.0942 102.878 12.1892C102.878 13.1871 102.878 14.2008 102.878 15.1987M101.325 0.214571C101.484 0.388806 101.658 0.56304 101.816 0.721435C102.133 1.03823 102.45 1.35501 102.767 1.6718C102.83 1.73516 102.878 1.86188 102.878 1.95692C102.878 3.36663 102.878 4.79218 102.878 6.2019V6.43949C102.878 6.43949 103.02 6.43949 103.084 6.43949C104.953 6.43949 106.822 6.47117 108.675 6.47117C109.008 6.47117 109.245 6.55037 109.467 6.78796C110.892 8.24519 112.334 9.67075 113.791 11.1121C113.886 11.2072 113.918 11.3022 113.918 11.4289C113.918 13.9316 113.918 16.4342 113.918 18.9368C113.918 19.0319 113.87 19.1586 113.807 19.222C112.302 20.7267 110.797 22.2315 109.293 23.7362C109.229 23.7996 109.103 23.8471 109.008 23.8471C105.951 23.8471 102.878 23.8471 99.8207 23.8471C99.7256 23.8471 99.6148 23.7996 99.5356 23.7362C99.0762 23.3244 98.6327 22.8809 98.1892 22.4691C98.0942 22.3899 98.0625 22.2948 98.0625 22.1681C98.0625 15.4205 98.0625 8.6887 98.0625 1.94108C98.0625 1.81436 98.0942 1.71932 98.1892 1.62429C98.6327 1.19662 99.0604 0.753114 99.5039 0.309608C99.5514 0.26209 99.5831 0.214572 99.6148 0.167053H101.341L101.325 0.214571Z" fill="#231F20"/>
<path d="M4.76726 15.1987C4.76726 16.1808 4.76726 17.1628 4.76726 18.1449C4.76726 18.2716 4.79894 18.3666 4.89398 18.4458C5.08405 18.6201 5.25828 18.7943 5.43252 18.9685C5.52756 19.0636 5.60675 19.0952 5.73347 19.0952C7.17486 19.0952 8.6321 19.0952 10.0735 19.0952C10.216 19.0952 10.3111 19.0477 10.4061 18.9527C10.5645 18.7785 10.7387 18.6042 10.913 18.4458C11.008 18.3508 11.0397 18.2716 11.0397 18.1449C11.0397 16.4659 11.0397 14.8027 11.0397 13.1238C11.0397 12.7911 11.1347 12.4268 11.008 12.1417C10.8813 11.8566 10.5645 11.6507 10.3269 11.4131C10.2319 11.3181 10.1527 11.2864 10.026 11.2864C8.60042 11.2864 7.15902 11.2864 5.73347 11.2864C5.59091 11.2864 5.49588 11.3339 5.40084 11.4289C5.24244 11.6032 5.05237 11.7774 4.89398 11.9516C4.83062 12.0308 4.7831 12.1417 4.7831 12.2367C4.7831 13.2188 4.7831 14.2008 4.7831 15.1829M14.2868 0.182892C14.2868 0.182892 14.3502 0.27793 14.3977 0.325448C14.8253 0.753114 15.253 1.18078 15.6807 1.60845C15.7915 1.71932 15.8391 1.81436 15.8391 1.97276C15.8391 7.42154 15.8391 12.8703 15.8391 18.3191C15.8391 19.6021 15.8391 20.8851 15.8391 22.1681C15.8391 22.2631 15.7915 22.3899 15.7282 22.4532C15.2847 22.9126 14.8412 23.3561 14.3818 23.7996C14.3185 23.8629 14.2076 23.9105 14.1126 23.9105C11.0555 23.9105 7.99852 23.9105 4.94149 23.9105C4.84646 23.9105 4.73558 23.8629 4.67222 23.7996C3.15163 22.2948 1.64688 20.7901 0.142127 19.2695C0.0787695 19.2061 0.03125 19.0952 0.03125 19.0002C0.03125 16.4501 0.03125 13.8999 0.03125 11.3497C0.03125 11.2547 0.0787695 11.1438 0.142127 11.0805C1.64688 9.59155 3.15163 8.10264 4.64054 6.61373C4.73558 6.51869 4.81478 6.48701 4.94149 6.48701C6.88975 6.48701 8.83801 6.48701 10.7863 6.48701H11.0555V6.26526C11.0555 4.8397 11.0555 3.41415 11.0555 1.98859C11.0555 1.81436 11.1031 1.68764 11.2298 1.56093C11.705 1.10158 12.1643 0.626399 12.6395 0.167053H14.2868V0.182892Z" fill="#231F20"/>
<path d="M178.131 5.12476C178.02 6.40776 179.176 7.469 180.412 7.48484C181.695 7.48484 182.677 6.29688 182.677 5.10892C182.677 3.79424 181.632 2.74883 180.364 2.74883C179.081 2.74883 178.02 3.9368 178.131 5.12476ZM183.501 5.48907C183.453 5.72666 183.421 5.96425 183.342 6.18601C182.661 8.03923 180.412 8.78368 178.701 7.7066C177.64 7.04134 177.165 6.04345 177.292 4.80797C177.418 3.55665 178.147 2.70132 179.319 2.27365C180.966 1.67175 182.804 2.44788 183.39 4.15855C183.453 4.34862 183.485 4.55454 183.532 4.76045V5.48907H183.501Z" fill="#231F20"/>
<path d="M164.699 8.84706C165.491 8.03924 166.267 7.27895 167.011 6.51865C167.106 6.42362 167.186 6.39194 167.312 6.39194C169.276 6.39194 171.256 6.39194 173.22 6.39194C173.363 6.39194 173.442 6.43946 173.537 6.53449C175.042 8.05508 176.563 9.55984 178.083 11.0646C178.178 11.1596 178.21 11.2547 178.21 11.3814C178.21 14.9611 178.21 18.525 178.21 22.1047C178.21 22.2314 178.178 22.3265 178.083 22.4215C177.64 22.865 177.196 23.3085 176.737 23.752C176.673 23.8154 176.563 23.8629 176.468 23.8629C176.008 23.8629 175.549 23.8629 175.09 23.8629C175.01 23.8629 174.915 23.8154 174.852 23.7679C174.377 23.3085 173.917 22.8492 173.458 22.374C173.395 22.3106 173.363 22.1997 173.363 22.1047C173.363 19.0635 173.363 16.0382 173.363 12.997C173.363 12.8544 173.315 12.7594 173.22 12.6644C172.777 12.2209 172.333 11.7774 171.874 11.3339C171.811 11.2863 171.716 11.2388 171.636 11.2388C170.702 11.2388 169.752 11.2388 168.817 11.2388C168.738 11.2388 168.627 11.2863 168.564 11.3497C168.104 11.7932 167.677 12.2367 167.217 12.6802C167.122 12.7753 167.075 12.8861 167.091 13.0128C167.091 16.054 167.091 19.0952 167.091 22.1364C167.091 22.2948 167.043 22.3898 166.932 22.5007C166.505 22.9125 166.093 23.3402 165.665 23.752C165.602 23.8154 165.491 23.8629 165.396 23.8629C164.952 23.8629 164.493 23.8629 164.034 23.8629C163.954 23.8629 163.843 23.8154 163.78 23.7679C163.305 23.3085 162.846 22.8492 162.386 22.374C162.323 22.3106 162.291 22.1997 162.291 22.1047C162.291 19.0794 162.291 16.0382 162.291 13.0128C162.291 12.8703 162.26 12.7594 162.149 12.6644C161.705 12.2367 161.262 11.7774 160.818 11.3497C160.755 11.2863 160.66 11.2388 160.565 11.2388C159.63 11.2388 158.68 11.2388 157.745 11.2388C157.666 11.2388 157.571 11.2863 157.508 11.3339C157.048 11.7774 156.605 12.2367 156.145 12.6802C156.05 12.7753 156.019 12.8703 156.019 12.997C156.019 16.0223 156.019 19.0477 156.019 22.073C156.019 22.2314 155.971 22.3423 155.86 22.4532C155.417 22.8808 154.989 23.3244 154.546 23.752C154.482 23.8154 154.371 23.8629 154.276 23.8629C153.833 23.8629 153.374 23.8629 152.914 23.8629C152.819 23.8629 152.708 23.8154 152.645 23.752C152.186 23.3085 151.758 22.865 151.299 22.4215C151.204 22.3265 151.172 22.2314 151.172 22.1047C151.172 18.6042 151.172 15.1195 151.172 11.619C151.172 10.4627 151.172 9.32224 151.172 8.16596C151.172 8.03925 151.204 7.94421 151.299 7.86501C151.758 7.40566 152.201 6.94632 152.645 6.48697C152.708 6.42362 152.819 6.3761 152.914 6.3761C156.003 6.3761 159.092 6.40778 162.18 6.43946C162.26 6.43946 162.37 6.48697 162.434 6.55033C163.131 7.24727 163.828 7.96005 164.525 8.67282C164.572 8.72034 164.604 8.7837 164.651 8.84706" fill="#231F20"/>
<path d="M73.7315 15.1988C73.7315 14.2009 73.7315 13.203 73.7315 12.2051C73.7315 12.1259 73.684 12.015 73.6207 11.9517C73.4464 11.7616 73.2564 11.5715 73.0663 11.3973C73.0029 11.3339 72.892 11.2864 72.797 11.2864C71.3398 11.2864 69.8984 11.2864 68.4411 11.2864C68.3619 11.2864 68.2511 11.3339 68.1877 11.3973C67.9818 11.5874 67.8076 11.7774 67.6175 11.9675C67.57 12.0309 67.5225 12.1259 67.5225 12.2051C67.5225 14.2167 67.5225 16.2283 67.5225 18.24C67.5225 18.3192 67.57 18.43 67.6333 18.4934C67.7759 18.6676 67.9501 18.8102 68.1085 18.9686C68.2036 19.0636 68.2827 19.0953 68.4095 19.0953C69.6133 19.0953 70.8329 19.0953 72.0367 19.0953C72.3377 19.0953 72.6861 19.1745 72.9396 19.0636C73.193 18.9527 73.3831 18.6518 73.6048 18.4459C73.6999 18.3667 73.7315 18.2716 73.7315 18.1449C73.7315 17.1629 73.7315 16.1967 73.7315 15.2146M78.5784 18.3667C78.5784 20.6634 78.5784 22.9443 78.5784 25.241C78.5784 25.3836 78.5467 25.4944 78.4359 25.6053C76.947 27.0942 75.4422 28.5831 73.9533 30.0721C73.8582 30.1671 73.7791 30.1988 73.6523 30.1988C70.5636 30.1988 67.4749 30.1988 64.3862 30.1988C64.2754 30.1988 64.1803 30.1671 64.1011 30.0879C63.6735 29.6444 63.23 29.2326 62.8023 28.7891C62.7389 28.7257 62.6914 28.6307 62.6914 28.5356C62.6914 28.0763 62.6914 27.6011 62.6914 27.1418C62.6914 27.0626 62.7389 26.9675 62.7864 26.9042C63.23 26.4448 63.6893 26.0013 64.1486 25.542C64.2278 25.4469 64.3229 25.4311 64.4338 25.4311C67.2057 25.4311 69.9934 25.4311 72.7653 25.4311C72.892 25.4311 73.0029 25.3994 73.0821 25.3044C73.2405 25.1143 73.4147 24.9401 73.589 24.7658C73.6682 24.6866 73.6682 24.6233 73.589 24.5441C73.4147 24.3698 73.2564 24.1639 73.0821 23.9897C73.0346 23.9422 72.9237 23.9263 72.8445 23.9263C71.1022 23.9263 69.3598 23.9263 67.6175 23.9263C67.4908 23.9263 67.3957 23.8947 67.3007 23.7996C65.8118 22.2949 64.307 20.806 62.8181 19.317C62.7231 19.222 62.6914 19.1428 62.6914 19.0161C62.6914 16.4818 62.6914 13.9633 62.6914 11.429C62.6914 11.3339 62.7389 11.2072 62.8023 11.1439C64.307 9.63912 65.8118 8.13437 67.3165 6.62961C67.3799 6.56626 67.4908 6.51874 67.5858 6.51874C69.6133 6.51874 71.6407 6.51874 73.6523 6.51874C73.7474 6.51874 73.8582 6.56626 73.9216 6.62961C75.4264 8.13437 76.9311 9.63912 78.4359 11.128C78.5309 11.2231 78.5626 11.3023 78.5626 11.429C78.5626 13.7257 78.5626 16.0383 78.5626 18.335" fill="#231F20"/>
<path d="M28.7005 11.9517C28.4154 11.7141 28.1936 11.4923 27.9402 11.2864C27.8927 11.2548 27.8135 11.2389 27.7501 11.2389C26.2612 11.2389 24.7723 11.2389 23.2834 11.2389C23.2359 11.2389 23.1567 11.2389 23.1408 11.2864C22.9032 11.5082 22.6815 11.7458 22.4122 12.015C22.6498 12.2368 22.8716 12.4427 23.1092 12.6486C23.1567 12.6961 23.2359 12.7278 23.2992 12.7278C24.7881 12.7278 26.2929 12.7278 27.7818 12.7278C27.8452 12.7278 27.9244 12.6961 27.956 12.6645C28.1936 12.4427 28.4312 12.2051 28.7005 11.9675M22.4597 18.3825C22.6657 18.5726 22.8874 18.7944 23.125 19.0003C23.1725 19.0478 23.2834 19.0636 23.3626 19.0636C25.2633 19.0636 27.1799 19.0636 29.0806 19.0636C29.9677 19.0636 30.8388 19.0636 31.7258 19.0636C31.8209 19.0636 31.9318 19.1111 31.9951 19.1745C32.4703 19.618 32.9296 20.0932 33.4048 20.5367C33.4999 20.6317 33.5315 20.7109 33.5315 20.8376C33.5315 21.2653 33.5315 21.6771 33.5315 22.1048C33.5315 22.184 33.484 22.279 33.4365 22.3424C32.9772 22.8176 32.5178 23.2769 32.0426 23.7204C31.9793 23.768 31.8842 23.8155 31.805 23.8155C28.7163 23.8155 25.6276 23.8155 22.5389 23.8155C22.4597 23.8155 22.3647 23.768 22.3013 23.7204C20.7808 22.2157 19.2602 20.6951 17.7396 19.1745C17.6762 19.1111 17.6445 19.0161 17.6445 18.9369C17.6445 16.4026 17.6445 13.8841 17.6445 11.3498C17.6445 11.2706 17.6921 11.1756 17.7396 11.1122C19.2443 9.60744 20.7649 8.10269 22.2697 6.59794C22.333 6.53458 22.4439 6.48706 22.5389 6.48706C24.5506 6.45538 26.578 6.43955 28.5896 6.42371C28.6688 6.42371 28.748 6.47123 28.8114 6.51874C30.3478 8.05517 31.9001 9.5916 33.4365 11.128C33.484 11.1756 33.5315 11.2706 33.5315 11.3498C33.5315 12.8545 33.5315 14.3593 33.5315 15.864C33.5315 15.9432 33.4999 16.0383 33.4365 16.0858C32.9772 16.561 32.5178 17.0203 32.0426 17.4797C31.9793 17.543 31.8526 17.5747 31.7734 17.5747C28.9856 17.5747 26.1979 17.5747 23.4101 17.5747C23.2834 17.5747 23.1884 17.6064 23.1092 17.7014C22.9191 17.9232 22.7132 18.1291 22.4914 18.3984" fill="#231F20"/>
<path d="M40.0585 11.9992C40.3436 12.2684 40.5812 12.4902 40.8346 12.712C40.898 12.7595 40.993 12.7912 41.0881 12.7912C43.8441 12.7912 46.6002 12.7912 49.3404 12.7912C49.4988 12.7912 49.5939 12.8387 49.7047 12.9495C50.1324 13.393 50.5759 13.8207 51.0036 14.2642C51.0669 14.3276 51.1145 14.4543 51.1145 14.5493C51.1145 16.0224 51.1145 17.5113 51.1145 18.9844C51.1145 19.0794 51.0669 19.2061 51.0036 19.2695C49.4988 20.7743 47.9941 22.279 46.4893 23.7838C46.426 23.8471 46.2992 23.8946 46.2042 23.8946C43.163 23.8946 40.106 23.8946 37.0648 23.8946C36.9381 23.8946 36.8431 23.863 36.7639 23.7679C36.3204 23.3086 35.861 22.8651 35.4017 22.4057C35.3542 22.3424 35.3066 22.2473 35.3066 22.1681C35.3066 21.7246 35.3066 21.2811 35.3066 20.8218C35.3066 20.7426 35.3383 20.6475 35.4017 20.6C35.861 20.1407 36.3204 19.6813 36.7797 19.222C36.8748 19.1269 36.9698 19.1111 37.0807 19.1111C39.8526 19.1111 42.6086 19.1111 45.3806 19.1111C45.539 19.1111 45.6498 19.0636 45.7449 18.9527C45.9349 18.7626 46.125 18.5726 46.3309 18.3825C46.0775 18.1291 45.8399 17.8915 45.6023 17.6539C45.5706 17.6222 45.5073 17.6222 45.4439 17.6222C42.6403 17.5905 39.8367 17.5747 37.0173 17.5588C36.8906 17.5588 36.7955 17.5272 36.7005 17.4163C36.2887 16.9886 35.8452 16.5768 35.4334 16.1491C35.37 16.0858 35.3225 15.9749 35.3225 15.8799C35.3225 14.3751 35.3225 12.8703 35.3225 11.3656C35.3225 11.2706 35.37 11.1597 35.4334 11.0963C36.9223 9.60741 38.4112 8.1185 39.9001 6.64543C39.9634 6.58207 40.0902 6.53455 40.1852 6.51871C43.2581 6.50287 46.3309 6.48703 49.4196 6.47119C49.5147 6.47119 49.6255 6.51871 49.6889 6.58207C50.1482 7.02557 50.6076 7.48492 51.0511 7.94426C51.1145 8.00762 51.1461 8.10266 51.1461 8.18186C51.1461 8.62536 51.1461 9.08471 51.1461 9.54405C51.1461 9.62325 51.0986 9.71829 51.0511 9.78165C50.6076 10.241 50.1482 10.6687 49.7047 11.128C49.6097 11.223 49.5305 11.2547 49.4038 11.2547C46.6319 11.2547 43.8441 11.2547 41.0722 11.2547C40.9455 11.2547 40.8505 11.2864 40.7554 11.3814C40.5495 11.6032 40.3278 11.7933 40.0902 12.015" fill="#231F20"/>
<path d="M120.571 15.2146C120.571 16.1966 120.571 17.1628 120.571 18.1449C120.571 18.3033 120.603 18.43 120.73 18.5409C120.904 18.6992 121.063 18.8735 121.253 19.0319C121.316 19.0952 121.427 19.1428 121.522 19.1428C122.741 19.1428 123.961 19.1428 125.165 19.1428C125.466 19.1428 125.814 19.222 126.068 19.1111C126.321 19.0002 126.511 18.7151 126.717 18.4775C126.781 18.4141 126.828 18.3033 126.828 18.2082C126.828 16.2283 126.828 14.2325 126.828 12.2526C126.828 12.1734 126.781 12.0625 126.733 11.9991C126.527 11.7774 126.321 11.5715 126.099 11.3656C126.036 11.318 125.957 11.2705 125.878 11.2705C124.405 11.2705 122.947 11.2705 121.474 11.2705C121.395 11.2705 121.3 11.318 121.253 11.3656C121.063 11.5398 120.888 11.7457 120.698 11.9199C120.603 12.015 120.571 12.0942 120.571 12.2209C120.571 13.2029 120.571 14.2008 120.571 15.1829M131.675 15.1987C131.675 16.4659 131.675 17.733 131.675 19.0002C131.675 19.1269 131.643 19.2061 131.548 19.3011C130.044 20.7742 128.539 22.2315 127.034 23.7045C126.955 23.7679 126.844 23.8312 126.733 23.8312C124.69 23.8312 122.646 23.8312 120.603 23.8312C120.508 23.8312 120.381 23.7837 120.318 23.7204C118.829 22.2473 117.324 20.7584 115.835 19.2695C115.772 19.2061 115.725 19.0794 115.725 18.9844C115.725 16.45 115.725 13.9316 115.725 11.3972C115.725 11.3022 115.772 11.1755 115.835 11.1121C117.324 9.60738 118.829 8.11847 120.318 6.62956C120.429 6.51868 120.524 6.487 120.667 6.487C122.678 6.487 124.706 6.487 126.717 6.487C126.844 6.487 126.939 6.51868 127.034 6.61372C128.523 8.10263 130.028 9.60738 131.517 11.0963C131.612 11.1913 131.643 11.2864 131.643 11.4131C131.643 12.6802 131.643 13.9474 131.643 15.2146" fill="#231F20"/>
<path d="M138.326 15.2305C138.326 15.9749 138.326 16.7194 138.326 17.4638C138.326 17.7806 138.246 18.1291 138.357 18.3825C138.468 18.6518 138.785 18.8419 139.007 19.0636C139.07 19.1111 139.149 19.1587 139.228 19.1587C140.717 19.1587 142.206 19.1587 143.679 19.1587C143.759 19.1587 143.838 19.1111 143.901 19.0636C144.107 18.8735 144.297 18.6676 144.487 18.4617C144.535 18.4142 144.566 18.3192 144.566 18.2558C144.566 16.2283 144.566 14.2167 144.566 12.1893C144.566 12.1101 144.519 12.0309 144.471 11.9675C144.297 11.7774 144.091 11.6032 143.917 11.4131C143.822 11.3181 143.743 11.2864 143.616 11.2864C142.238 11.2864 140.86 11.2864 139.482 11.2864C139.181 11.2864 138.959 11.3498 138.769 11.5874C138.674 11.7299 138.516 11.825 138.421 11.9517C138.357 12.0309 138.31 12.1259 138.31 12.221C138.31 13.2188 138.31 14.2326 138.31 15.2305M149.413 15.2305C149.413 16.4976 149.413 17.7648 149.413 19.0161C149.413 19.1111 149.366 19.2378 149.302 19.3012C147.798 20.7901 146.293 22.2632 144.788 23.7363C144.725 23.8155 144.582 23.863 144.487 23.863C142.444 23.863 140.416 23.863 138.373 23.863C138.278 23.863 138.151 23.8155 138.088 23.7521C136.583 22.279 135.094 20.806 133.59 19.3329C133.51 19.2537 133.463 19.1745 133.463 19.0478C133.463 16.5135 133.463 13.9633 133.463 11.429C133.463 11.3339 133.51 11.2231 133.574 11.1597C135.063 9.65496 136.567 8.1502 138.072 6.66129C138.167 6.56626 138.262 6.51874 138.405 6.51874C140.432 6.51874 142.444 6.51874 144.456 6.51874C144.598 6.51874 144.693 6.55042 144.788 6.66129C146.277 8.1502 147.782 9.65496 149.271 11.1439C149.366 11.2389 149.397 11.3181 149.397 11.4448C149.397 12.712 149.397 13.9791 149.397 15.2305" fill="#231F20"/>
<path d="M80.3691 15.1354C80.3691 12.8228 80.3691 10.5102 80.3691 8.18183C80.3691 8.02344 80.4167 7.9284 80.5275 7.81752C80.971 7.38986 81.3987 6.93051 81.8581 6.50285C81.9214 6.43949 82.0164 6.39197 82.1115 6.39197C85.1843 6.40781 88.2572 6.43949 91.3459 6.45533C91.4726 6.45533 91.5677 6.50285 91.6627 6.58204C93.1516 8.07096 94.6405 9.55987 96.1453 11.0488C96.2403 11.1438 96.272 11.2389 96.272 11.3656C96.272 14.9453 96.272 18.5092 96.272 22.0889C96.272 22.2156 96.2245 22.3107 96.1453 22.4057C95.7018 22.8492 95.2583 23.2927 94.7989 23.7362C94.7356 23.7996 94.6247 23.8471 94.5296 23.8471C94.0703 23.8471 93.6268 23.8471 93.1675 23.8471C93.0724 23.8471 92.9615 23.7996 92.8982 23.7362C92.4388 23.2927 92.0112 22.8492 91.5518 22.4057C91.4568 22.3107 91.4251 22.2156 91.4251 22.0889C91.4251 19.0636 91.4251 16.0382 91.4251 13.0129C91.4251 12.8545 91.3776 12.7436 91.2667 12.6327C90.8232 12.2051 90.3797 11.7457 89.9362 11.3181C89.8728 11.2705 89.7778 11.223 89.6986 11.223C88.7482 11.223 87.7979 11.223 86.8633 11.223C86.7841 11.223 86.6891 11.2705 86.6257 11.3181C86.1664 11.7932 85.707 12.2843 85.2477 12.7594C85.1843 12.8228 85.1685 12.9337 85.1685 13.0129C85.1685 16.0382 85.1685 19.0477 85.1685 22.0731C85.1685 22.2156 85.121 22.3107 85.0259 22.4057C84.5824 22.8334 84.1389 23.2927 83.6954 23.7204C83.6321 23.7837 83.5054 23.8312 83.4103 23.8471C82.9827 23.8471 82.5708 23.8471 82.1432 23.8471C82.0164 23.8471 81.9214 23.8154 81.8422 23.7204C81.3987 23.2769 80.9552 22.8175 80.5117 22.3899C80.4167 22.2948 80.385 22.2156 80.385 22.0889C80.385 19.7605 80.385 17.4321 80.385 15.1037" fill="#231F20"/>
<path d="M56.1034 11.3498C55.5966 11.3498 55.1214 11.3498 54.6621 11.3498C54.5829 11.3498 54.4878 11.3023 54.4245 11.2548C53.9651 10.7954 53.5058 10.3519 53.0464 9.87674C52.9831 9.81338 52.9355 9.71834 52.9355 9.62331C52.9355 9.1798 52.9355 8.73629 52.9355 8.30863C52.9355 8.22943 52.9672 8.13439 53.0147 8.08687C53.4741 7.61169 53.9493 7.1365 54.4245 6.67716C54.472 6.62964 54.567 6.59796 54.6304 6.59796C56.1351 6.59796 57.6557 6.59796 59.1605 6.59796C59.2238 6.59796 59.3189 6.62964 59.3664 6.67716C59.8416 7.15234 60.3168 7.61169 60.7761 8.08687C60.8395 8.15023 60.8553 8.26111 60.8711 8.34031C60.8711 10.4786 60.8711 12.617 60.8711 14.7553C60.8711 17.2263 60.8711 19.6972 60.8711 22.1682C60.8711 22.2949 60.8395 22.3899 60.7444 22.485C60.3009 22.9285 59.8574 23.372 59.3981 23.8155C59.3347 23.8788 59.2238 23.9264 59.1288 23.9264C58.6853 23.9264 58.2418 23.9264 57.8141 23.9264C57.7349 23.9264 57.6399 23.8788 57.5765 23.8313C57.133 23.3878 56.6895 22.9443 56.2302 22.5008C56.1193 22.4058 56.0876 22.2949 56.0876 22.1523C56.0876 18.636 56.0876 15.1196 56.0876 11.6191V11.3656L56.1034 11.3498Z" fill="#231F20"/>
<path d="M60.887 2.76479C61.0454 3.25581 60.7603 3.6518 60.3327 4.01611C60 4.30122 59.7149 4.63385 59.3823 4.9348C59.3348 4.98231 59.2397 5.02983 59.1605 5.02983C58.717 5.02983 58.2577 5.02983 57.7983 5.02983C57.735 5.02983 57.64 4.99815 57.5924 4.95064C57.1172 4.49129 56.6579 4.01611 56.1986 3.55676C56.151 3.50924 56.1035 3.41421 56.1035 3.33501C56.1035 2.87566 56.1035 2.43216 56.1035 1.97281C56.1035 1.89361 56.1352 1.79858 56.1986 1.75106C56.6579 1.27587 57.1172 0.816528 57.5924 0.357183C57.6558 0.309664 57.7508 0.262146 57.83 0.262146C58.2735 0.262146 58.717 0.262146 59.1764 0.262146C59.2556 0.262146 59.3506 0.293825 59.3981 0.357183C59.8733 0.816528 60.3327 1.29171 60.792 1.75106C60.8395 1.79858 60.8712 1.89361 60.887 1.97281C60.887 2.19456 60.887 2.41632 60.887 2.74895" fill="#231F20"/>
<path d="M179.969 4.55456C179.969 4.6496 179.969 4.74463 179.969 4.83967C179.969 4.88719 180.065 4.96639 180.096 4.95055C180.318 4.90303 180.54 4.87135 180.746 4.79215C180.936 4.71295 180.967 4.4912 180.872 4.34865C180.761 4.17441 180.318 4.03186 180.08 4.12689C179.874 4.20609 180.001 4.412 179.954 4.53872C179.954 4.53872 179.954 4.53872 179.954 4.55456M181.87 6.67705C181.601 6.67705 181.348 6.67705 181.094 6.67705C181.062 6.67705 181.015 6.59785 180.999 6.56617C180.92 6.36026 180.872 6.13851 180.777 5.91675C180.651 5.58413 180.365 5.45741 180.017 5.53661C179.985 5.53661 179.938 5.6158 179.938 5.66332C179.938 5.93259 179.938 6.21771 179.938 6.48698V6.69289H179.193V3.60419C179.447 3.60419 179.684 3.57251 179.922 3.57251C180.255 3.57251 180.587 3.57251 180.936 3.60419C181.348 3.63587 181.633 3.8893 181.712 4.26945C181.775 4.63376 181.617 4.93471 181.252 5.14062C181.221 5.14062 181.205 5.1723 181.157 5.20398C181.443 5.31485 181.538 5.56829 181.617 5.80588C181.696 6.09099 181.775 6.3761 181.854 6.67705" fill="#231F20"/>
</svg>
