<svg width="154" height="27" viewBox="0 0 154 27" fill="none" xmlns="http://www.w3.org/2000/svg">
<path d="M57.2369 8.76156H61.6956C63.5049 8.76156 64.4903 7.98615 64.4903 6.11222C64.4903 4.2383 63.5049 3.54366 61.6956 3.54366H57.2369V8.76156ZM53.166 0.37738H63.1495C66.4773 0.37738 68.5612 2.68747 68.5612 5.4822C68.5612 7.66306 67.6727 9.29466 65.6373 10.1185V10.167C67.6404 10.6839 68.2058 12.6386 68.3351 14.4964C68.4159 15.6595 68.3835 17.8404 69.1105 18.8743H65.0396C64.5388 17.7111 64.6034 15.918 64.3934 14.4318C64.1026 12.4932 63.3595 11.6371 61.3079 11.6371H57.2369V18.8743H53.166V0.393534V0.37738Z" fill="black"/>
<path d="M13.1018 26.4023C12.7626 26.8385 12.3264 27 11.9064 27C10.5655 27 9.75781 25.9984 9.75781 24.7384C9.75781 23.4783 10.5494 22.4283 11.9064 22.4283C12.7949 22.4283 13.651 22.9775 13.748 23.963H12.8272C12.7141 23.4783 12.3587 23.236 11.9064 23.236C11.0502 23.236 10.7271 23.963 10.7271 24.7384C10.7271 25.5138 11.0502 26.1923 11.9064 26.1923C12.5364 26.1923 12.8918 25.853 12.9402 25.2553H11.971V24.5445H13.7964V26.9031H13.1826L13.0856 26.4023H13.1018Z" fill="black"/>
<path d="M0 0.393616H14.329V5.14304H5.70254V7.45313H13.1013V11.8633H5.70254V18.9067H0V0.393616Z" fill="black"/>
<path d="M24.5386 12.2995L22.8747 6.59694H22.8262L21.0331 12.2995H24.5386ZM20.0477 0.393616H25.621L32.3574 18.9067H26.4448L25.6694 16.2573H19.7892L18.9653 18.9067H13.2305L20.0477 0.393616Z" fill="black"/>
<path d="M33.9395 0.393616H38.0104V7.50159H45.5061V0.393616H49.577V18.9067H45.5061V10.9263H38.0104V18.9067H33.9395V0.393616Z" fill="black"/>
<path d="M71.9531 0.393616H84.7475V1.89598H73.714V8.58394H84.0367V10.0863H73.714V17.4043H84.8767V18.9067H71.9531V0.393616Z" fill="black"/>
<path d="M87.2969 0.393616H89.2677L100.059 16.0635H100.107V0.393616H101.884V18.9067H99.9135L89.1223 3.23681H89.0739V18.9067H87.2969V0.393616Z" fill="black"/>
<path d="M106.491 9.77938V18.9067H105.344V0.393616H106.491V8.79395H118.316V0.393616H119.463V18.9067H118.316V9.77938H106.491Z" fill="black"/>
<path d="M135.293 17.9212V18.9067H122.725V0.393616H135.164V1.37904H123.855V8.79395H134.501V9.77938H123.855V17.9212H135.293Z" fill="black"/>
<path d="M138.395 0.393616H137.248V18.9067H138.395V0.393616Z" fill="black"/>
<path d="M139.574 0.91056V0.393616H153.419V0.91056H146.763V18.9067H146.246V0.91056H139.574Z" fill="black"/>
<path d="M3.56912 22.5253L2.59985 25.5301H2.5837L1.56596 22.5253H0.208984V26.887H1.11364V23.8338H1.12979L2.19599 26.887H2.93909L4.00529 23.8015H4.02144V26.887H4.90994V22.5253H3.56912Z" fill="black"/>
<path d="M7.42927 23.6077L7.97852 25.207H6.8477L7.41311 23.6077H7.42927ZM6.94463 22.5253L5.29688 26.887H6.26614L6.60539 25.9178H8.23699L8.56008 26.887H9.56166L7.93006 22.5253H6.94463Z" fill="black"/>
<path d="M16.2515 23.6077L16.8008 25.207H15.67L16.2354 23.6077H16.2515ZM15.7669 22.5253L14.1191 26.887H15.0884L15.4277 25.9178H17.0593L17.3823 26.887H18.3839L16.7523 22.5253H15.7669Z" fill="black"/>
<path d="M18.6738 22.5253V23.3331H20.8385L18.4961 26.1278V26.887H22.1793V26.0793H19.7723L22.1147 23.2846V22.5253H18.6738Z" fill="black"/>
<path d="M23.6973 22.5253H22.7441V26.887H23.6973V22.5253Z" fill="black"/>
<path d="M27.3338 22.5253V25.4654H27.3176L25.4922 22.5253H24.5391V26.887H25.4437V23.9792H25.4599L27.2692 26.887H28.2223V22.5253H27.3338Z" fill="black"/>
<path d="M29.0781 22.5253V26.887H32.3898V26.0793H30.0312V25.0131H32.1475V24.27H30.0312V23.3331H32.3413V22.5253H29.0781Z" fill="black"/>
</svg>
