<svg width="168" height="30" viewBox="0 0 168 30" fill="none" xmlns="http://www.w3.org/2000/svg">
<path d="M57.2369 11.7616H61.6956C63.5049 11.7616 64.4903 10.9861 64.4903 9.11222C64.4903 7.2383 63.5049 6.54366 61.6956 6.54366H57.2369V11.7616ZM53.166 3.37738H63.1495C66.4773 3.37738 68.5612 5.68747 68.5612 8.4822C68.5612 10.6631 67.6727 12.2947 65.6373 13.1185V13.167C67.6404 13.6839 68.2058 15.6386 68.3351 17.4964C68.4159 18.6595 68.3835 20.8404 69.1105 21.8743H65.0396C64.5388 20.7111 64.6034 18.918 64.3934 17.4318C64.1026 15.4932 63.3595 14.6371 61.3079 14.6371H57.2369V21.8743H53.166V3.39353V3.37738Z" fill="#A5A5A5"/>
<path d="M13.1018 29.4023C12.7626 29.8385 12.3264 30 11.9064 30C10.5655 30 9.75781 28.9984 9.75781 27.7384C9.75781 26.4783 10.5494 25.4283 11.9064 25.4283C12.7949 25.4283 13.651 25.9775 13.748 26.963H12.8272C12.7141 26.4783 12.3587 26.236 11.9064 26.236C11.0502 26.236 10.7271 26.963 10.7271 27.7384C10.7271 28.5138 11.0502 29.1923 11.9064 29.1923C12.5364 29.1923 12.8918 28.853 12.9402 28.2553H11.971V27.5445H13.7964V29.9031H13.1826L13.0856 29.4023H13.1018Z" fill="#A5A5A5"/>
<path d="M0 3.39362H14.329V8.14304H5.70254V10.4531H13.1013V14.8633H5.70254V21.9067H0V3.39362Z" fill="#A5A5A5"/>
<path d="M24.5386 15.2995L22.8747 9.59694H22.8262L21.0331 15.2995H24.5386ZM20.0477 3.39362H25.621L32.3574 21.9067H26.4448L25.6694 19.2573H19.7892L18.9653 21.9067H13.2305L20.0477 3.39362Z" fill="#A5A5A5"/>
<path d="M33.9395 3.39362H38.0104V10.5016H45.5061V3.39362H49.577V21.9067H45.5061V13.9263H38.0104V21.9067H33.9395V3.39362Z" fill="#A5A5A5"/>
<path d="M71.9531 3.39362H84.7475V4.89598H73.714V11.5839H84.0367V13.0863H73.714V20.4043H84.8767V21.9067H71.9531V3.39362Z" fill="#A5A5A5"/>
<path d="M87.2969 3.39362H89.2677L100.059 19.0635H100.107V3.39362H101.884V21.9067H99.9135L89.1223 6.23681H89.0739V21.9067H87.2969V3.39362Z" fill="#A5A5A5"/>
<path d="M106.491 12.7794V21.9067H105.344V3.39362H106.491V11.794H118.316V3.39362H119.463V21.9067H118.316V12.7794H106.491Z" fill="#A5A5A5"/>
<path d="M135.293 20.9212V21.9067H122.725V3.39362H135.164V4.37904H123.855V11.794H134.501V12.7794H123.855V20.9212H135.293Z" fill="#A5A5A5"/>
<path d="M138.395 3.39362H137.248V21.9067H138.395V3.39362Z" fill="#A5A5A5"/>
<path d="M139.574 3.91056V3.39362H153.419V3.91056H146.763V21.9067H146.246V3.91056H139.574Z" fill="#A5A5A5"/>
<path d="M3.56912 25.5253L2.59985 28.5301H2.5837L1.56596 25.5253H0.208984V29.887H1.11364V26.8338H1.12979L2.19599 29.887H2.93909L4.00529 26.8015H4.02144V29.887H4.90994V25.5253H3.56912Z" fill="#A5A5A5"/>
<path d="M7.42927 26.6077L7.97852 28.207H6.8477L7.41311 26.6077H7.42927ZM6.94463 25.5253L5.29688 29.887H6.26614L6.60539 28.9178H8.23699L8.56008 29.887H9.56166L7.93006 25.5253H6.94463Z" fill="#A5A5A5"/>
<path d="M16.2515 26.6077L16.8008 28.207H15.67L16.2354 26.6077H16.2515ZM15.7669 25.5253L14.1191 29.887H15.0884L15.4277 28.9178H17.0593L17.3823 29.887H18.3839L16.7523 25.5253H15.7669Z" fill="#A5A5A5"/>
<path d="M18.6738 25.5253V26.3331H20.8385L18.4961 29.1278V29.887H22.1793V29.0793H19.7723L22.1147 26.2846V25.5253H18.6738Z" fill="#A5A5A5"/>
<path d="M23.6973 25.5253H22.7441V29.887H23.6973V25.5253Z" fill="#A5A5A5"/>
<path d="M27.3338 25.5253V28.4654H27.3176L25.4922 25.5253H24.5391V29.887H25.4437V26.9792H25.4599L27.2692 29.887H28.2223V25.5253H27.3338Z" fill="#A5A5A5"/>
<path d="M29.0781 25.5253V29.887H32.3898V29.0793H30.0312V28.0131H32.1475V27.27H30.0312V26.3331H32.3413V25.5253H29.0781Z" fill="#A5A5A5"/>
<circle cx="163.804" cy="3.94029" r="3.69029" stroke="#A5A5A5" stroke-width="0.5"/>
</svg>
