<svg width="109" height="33" viewBox="0 0 109 33" fill="none" xmlns="http://www.w3.org/2000/svg">
<g clip-path="url(#clip0_723_32)">
<path d="M9.19414 30.9553H0.0161478C0.0100924 30.9109 0.00605542 30.8645 0 30.82C0.153404 30.7938 0.306808 30.7595 0.46223 30.7433C1.18484 30.6666 1.67937 30.2952 1.82874 29.5767C1.93975 29.0438 2.02453 28.4927 2.02655 27.9498C2.04068 22.3182 2.03866 16.6847 2.03058 11.0531C2.03058 10.5728 1.97407 10.0843 1.88122 9.61196C1.70965 8.73191 1.2999 8.38271 0.413787 8.2616C0.278549 8.24344 0.14533 8.20912 0.0121108 8.18086C0.0161478 8.14049 0.0181663 8.10012 0.0222032 8.05975H7.66212C7.55918 8.41097 7.46027 8.75613 7.35733 9.10936C7.43605 9.11743 7.47642 9.1356 7.49055 9.12147C9.54334 7.26851 11.8787 7.3331 14.2403 8.28179C16.9794 9.38185 18.3681 11.58 18.7617 14.4401C19.0483 16.5353 18.9232 18.5982 18.0633 20.5642C16.5898 23.931 12.2138 25.7759 9.02055 24.3529C8.3706 24.0642 7.79534 23.606 7.16759 23.2144C7.16154 23.2467 7.13126 23.3335 7.13126 23.4183C7.1353 24.9503 7.13126 26.4844 7.1575 28.0164C7.16558 28.4968 7.23219 28.9832 7.33715 29.4535C7.52486 30.2973 7.95884 30.6505 8.81063 30.7433C8.94385 30.7575 9.07505 30.7857 9.20827 30.8079C9.20423 30.8564 9.19818 30.9048 9.19414 30.9533V30.9553ZM7.07878 16.3193C7.09493 16.3193 7.11108 16.3193 7.12924 16.3193C7.12924 18.3035 7.12319 20.2877 7.13934 22.2698C7.13934 22.4898 7.21604 22.7603 7.35531 22.9218C8.0537 23.7292 8.94991 24.2237 9.99749 24.4175C11.257 24.6516 12.3349 24.145 12.8779 22.9803C13.1806 22.3324 13.4087 21.6198 13.5217 20.9134C13.9759 18.0936 13.9295 15.2576 13.659 12.4237C13.5601 11.3761 13.3603 10.3467 12.8516 9.40607C12.2178 8.23334 11.1399 7.75295 9.84005 8.05168C9.00037 8.24545 8.26564 8.64915 7.67625 9.26478C7.46229 9.48681 7.27256 9.83197 7.26044 10.1307C7.17365 12.1916 7.1353 14.2565 7.0808 16.3193H7.07878Z" fill="black"/>
<path d="M26.0939 8.04364H33.7016C33.0012 10.7282 33.2737 13.4572 33.2353 16.164C33.2091 18.0189 33.2636 19.8739 33.2979 21.7289C33.3039 22.0478 33.3685 22.3708 33.4452 22.6836C33.7884 24.0824 34.7815 24.6779 36.1782 24.3045C37.3994 23.9775 38.2774 23.2044 38.8689 22.1043C38.9617 21.9307 38.9879 21.7026 38.9879 21.4988C38.996 17.8696 38.996 14.2383 38.992 10.6091C38.992 10.3851 38.9577 10.159 38.9213 9.93697C38.7215 8.73194 38.4248 8.43724 37.2399 8.24549C37.1532 8.23136 37.0684 8.19301 36.9937 8.06383H44.6599C44.0664 9.64227 44.1552 11.2752 44.1411 12.892C44.1189 15.5382 44.129 18.1844 44.1411 20.8307C44.1431 21.4423 44.1754 22.0579 44.2582 22.6634C44.4015 23.705 44.8112 24.0824 45.8508 24.2318C45.9638 24.2479 46.0728 24.2802 46.1838 24.3065C46.1798 24.3448 46.1757 24.3832 46.1697 24.4235H38.5721C38.7033 23.8382 38.8325 23.2609 38.9738 22.6291C38.3844 23.1337 37.9202 23.6343 37.3631 23.9896C35.4657 25.2047 32.0484 25.0735 30.2278 23.7352C28.9925 22.8269 28.4293 21.523 28.2456 20.0475C28.1548 19.3148 28.1467 18.568 28.1407 17.8272C28.1265 15.7138 28.1467 13.6005 28.1265 11.4872C28.1205 10.8776 28.0761 10.2599 27.9671 9.66044C27.7935 8.70974 27.41 8.39082 26.4452 8.25962C26.3241 8.24347 26.207 8.20915 26.0879 8.1809C26.0899 8.13649 26.0919 8.09208 26.096 8.04768L26.0939 8.04364Z" fill="black"/>
<path d="M62.3881 24.4215H53.2545C53.2484 24.3791 53.2424 24.3387 53.2363 24.2963C53.4099 24.262 53.5815 24.2217 53.7571 24.1954C54.4555 24.0905 54.9157 23.707 55.055 23.0126C55.1559 22.51 55.2508 21.9933 55.2528 21.4826C55.275 16.612 55.279 11.7415 55.2831 6.87088C55.2831 5.50034 55.275 4.12979 55.2508 2.75925C55.2447 2.37372 55.1942 1.98618 55.1155 1.60872C54.9218 0.678207 54.5281 0.324974 53.5936 0.183681C53.4745 0.165515 53.3595 0.137256 53.2505 0H60.852C60.1678 2.19004 60.3696 4.45477 60.3514 6.69527C60.3171 11.1783 60.3353 15.6633 60.3474 20.1464C60.3494 20.9659 60.3757 21.7934 60.4867 22.6049C60.6441 23.7413 61.0074 24.0541 62.1257 24.2318C62.2205 24.2479 62.3114 24.2903 62.4042 24.3186C62.3982 24.3529 62.3941 24.3852 62.3881 24.4195V24.4215Z" fill="black"/>
<path d="M75.7822 7.66815C77.2557 7.67824 78.6949 7.90633 79.9584 8.69152C80.5842 9.08108 81.1433 9.62809 81.6217 10.1973C82.0375 10.6938 82.098 11.3559 81.8901 11.9937C81.662 12.6901 80.9616 13.0413 80.2652 12.8334C79.5648 12.6255 79.147 11.9534 79.3327 11.259C79.4276 10.9058 79.6072 10.5727 79.7586 10.2356C80.023 9.63818 79.9625 9.20623 79.4316 8.82675C78.0833 7.86798 76.5795 7.60154 75.0273 8.17479C73.5599 8.71574 73.1804 10.6656 74.3309 11.7233C74.8779 12.2259 75.5622 12.6033 76.2283 12.9485C77.5746 13.6428 78.9795 14.2241 80.3076 14.9488C81.5873 15.6452 82.5804 16.6463 82.966 18.1238C83.6078 20.5823 82.4391 22.9863 80.0836 23.9451C77.395 25.0391 74.6922 25.1522 72.0158 23.8866C71.1539 23.4788 70.4393 22.8773 69.9064 22.0841C69.533 21.531 69.3554 20.9214 69.531 20.2473C69.751 19.4076 70.4333 19.0039 71.2185 19.2522C71.935 19.4782 72.3185 20.2634 72.0521 21.0143C71.9451 21.3171 71.7756 21.5956 71.6322 21.8842C71.3113 22.5342 71.3638 22.9036 71.9148 23.384C72.7646 24.1248 73.8041 24.4195 74.8921 24.5264C76.0466 24.6415 77.179 24.5446 78.2125 23.9189C79.579 23.0913 79.8979 21.2343 78.7837 20.0898C78.2993 19.5913 77.6856 19.1856 77.064 18.8666C75.758 18.1985 74.4016 17.6333 73.0815 16.9915C72.1893 16.5575 71.39 15.9822 70.7704 15.193C68.9598 12.892 69.7167 9.618 72.3508 8.36251C73.4368 7.84578 74.5913 7.66613 75.7842 7.67219L75.7822 7.66815Z" fill="black"/>
<path d="M107.39 22.7179C107.248 22.8713 107.135 23.0671 106.964 23.168C105.129 24.2439 103.147 24.7949 101.015 24.7808C98.5468 24.7646 96.2033 24.2641 94.1384 22.843C91.69 21.1596 90.6687 18.7657 90.812 15.845C91.0159 11.6769 93.8316 9.07101 97.5719 8.08196C99.8003 7.49257 102.049 7.47036 104.237 8.28986C106.37 9.08918 107.652 10.6434 108.078 12.89C108.104 13.0292 108.106 13.1725 108.124 13.3744C107.894 13.3865 107.694 13.4087 107.493 13.4087C103.831 13.4087 100.17 13.4087 96.5061 13.4047C96.2175 13.4047 95.9833 13.3946 95.9349 13.7922C95.616 16.4425 95.8541 19.012 97.0652 21.4301C97.8625 23.0227 99.0494 24.1894 100.876 24.48C101.5 24.5789 102.17 24.5547 102.798 24.4558C104.36 24.2055 105.823 23.6747 107.085 22.6796C107.133 22.6412 107.19 22.619 107.244 22.5887L107.392 22.7199L107.39 22.7179ZM103.365 13.2048C103.365 11.9917 103.22 10.8654 102.773 9.79363C101.956 7.82763 99.9092 7.25641 98.2117 8.56034C96.71 9.71491 96.3103 11.4205 96.0035 13.2048H103.365Z" fill="black"/>
<path d="M53.0079 29.4334H53.3551V32.5761H54.6933V32.9112H53.0059V29.4313L53.0079 29.4334Z" fill="black"/>
<path d="M60.0206 28.9106L60.3395 29.062L59.8591 29.9562L59.625 29.8572L60.0206 28.9106Z" fill="black"/>
<path d="M67.3275 29.4333L68.9503 32.9132H68.5749L68.0279 31.7687H66.5282L65.9852 32.9132H65.5977L67.2407 29.4333H67.3255H67.3275ZM67.2831 30.1721L66.6876 31.4316H67.8765L67.2831 30.1721Z" fill="black"/>
<path d="M77.1682 30.0167L76.8977 30.273C76.7039 30.0813 76.492 29.938 76.2599 29.8391C76.0278 29.7402 75.8037 29.6917 75.5837 29.6917C75.3112 29.6917 75.0508 29.7583 74.8046 29.8936C74.5583 30.0288 74.3666 30.2084 74.2313 30.4386C74.0961 30.6687 74.0275 30.9109 74.0275 31.1652C74.0275 31.4195 74.0981 31.6759 74.2374 31.912C74.3766 32.1482 74.5724 32.3339 74.8187 32.4671C75.0649 32.6003 75.3374 32.669 75.6321 32.669C75.9894 32.669 76.2922 32.568 76.5405 32.3662C76.7887 32.1643 76.9341 31.9019 76.9805 31.581H75.8703V31.2459H77.37C77.366 31.7829 77.2065 32.2108 76.8917 32.5277C76.5768 32.8446 76.1529 33.002 75.622 33.002C74.9782 33.002 74.4695 32.782 74.0941 32.344C73.8054 32.0069 73.6621 31.6153 73.6621 31.1733C73.6621 30.8443 73.7449 30.5375 73.9104 30.2529C74.0759 29.9682 74.304 29.7462 74.5926 29.5868C74.8813 29.4273 75.2083 29.3466 75.5716 29.3466C75.8663 29.3466 76.1448 29.399 76.4032 29.506C76.6616 29.613 76.9179 29.7825 77.1642 30.0187L77.1682 30.0167Z" fill="black"/>
<path d="M82.4746 29.4333H84.4689V29.7745H82.8218V30.8644H84.4547V31.2056H82.8218V32.5721H84.4547V32.9132H82.4746V29.4333Z" fill="black"/>
<path d="M89.332 32.9132V29.4333H89.4087L91.7239 32.0997V29.4333H92.0671V32.9132H91.9883L89.6913 30.2791V32.9132H89.332Z" fill="black"/>
<path d="M100.792 30.0793L100.517 30.2892C100.366 30.0914 100.184 29.942 99.9723 29.8411C99.7603 29.7402 99.5262 29.6877 99.2739 29.6877C98.9953 29.6877 98.739 29.7543 98.5028 29.8875C98.2666 30.0207 98.083 30.2004 97.9538 30.4244C97.8246 30.6485 97.758 30.9028 97.758 31.1834C97.758 31.6072 97.9033 31.9625 98.194 32.2451C98.4846 32.5277 98.852 32.671 99.2961 32.671C99.7825 32.671 100.19 32.4792 100.519 32.0977L100.794 32.3056C100.62 32.5257 100.404 32.6972 100.144 32.8183C99.8834 32.9394 99.5948 33 99.2739 33C98.6643 33 98.1859 32.7981 97.8327 32.3924C97.538 32.0493 97.3906 31.6375 97.3906 31.1531C97.3906 30.6444 97.5683 30.2145 97.9255 29.8673C98.2828 29.5201 98.7309 29.3466 99.2678 29.3466C99.5928 29.3466 99.8855 29.4112 100.148 29.5403C100.41 29.6695 100.624 29.8492 100.792 30.0813V30.0793Z" fill="black"/>
<path d="M105.973 29.4333H107.967V29.7745H106.32V30.8644H107.953V31.2056H106.32V32.5721H107.953V32.9132H105.973V29.4333Z" fill="black"/>
</g>
<defs>
<clipPath id="clip0_723_32">
<rect width="108.123" height="33" fill="white"/>
</clipPath>
</defs>
</svg>
