<svg width="35" height="35" viewBox="0 0 35 35" fill="none" xmlns="http://www.w3.org/2000/svg">
<path d="M17.5 35C27.165 35 35 27.165 35 17.5C35 7.83502 27.165 0 17.5 0C7.83502 0 0 7.83502 0 17.5C0 27.165 7.83502 35 17.5 35Z" fill="black"/>
<path d="M17.7574 19.3664C20.6891 19.3664 23.0657 16.9899 23.0657 14.0582C23.0657 11.1266 20.6891 8.75 17.7574 8.75C14.8258 8.75 12.4492 11.1266 12.4492 14.0582C12.4492 16.9899 14.8258 19.3664 17.7574 19.3664Z" fill="white"/>
<path d="M18.2035 13.4932L24.3165 26.2501L18.2891 26.3014L12.2617 26.3528L18.2035 13.4932Z" fill="white"/>
<path d="M18.2025 8.75H12.0039V26.3185H18.2025V8.75Z" fill="white"/>
</svg>
