<svg width="158" height="23" viewBox="0 0 158 23" fill="none" xmlns="http://www.w3.org/2000/svg">
<path d="M50.0614 0.62193C50.5072 0.62193 50.919 0.62193 51.3307 0.62193C53.5625 0.62193 55.7944 0.599214 58.0234 0.630448C59.5653 0.653164 61.0787 0.903041 62.4758 1.59872C64.7388 2.72884 65.9116 4.5802 66.1046 7.06193C66.204 8.32835 66.0592 9.5607 65.4913 10.7192C64.8297 12.068 63.7762 12.9567 62.3082 13.3429C61.9675 13.4309 61.6239 13.5104 61.2434 13.6013C63.1487 16.5516 65.0625 19.516 67.0076 22.5316C66.8372 22.5316 66.7151 22.5316 66.593 22.5316C64.6565 22.5316 62.72 22.5259 60.7834 22.5372C60.5051 22.5372 60.3717 22.4719 60.2325 22.2079C59.0002 19.8028 57.7451 17.4091 56.4958 15.0097C56.1948 14.4333 55.8909 13.8597 55.59 13.2833C55.5616 13.2918 55.5332 13.3003 55.5019 13.3117V22.5202H50.0586V0.62193H50.0614ZM55.5048 7.92514H55.5076C55.5076 8.84798 55.5019 9.77366 55.5161 10.6965C55.5161 10.7987 55.6382 10.989 55.7007 10.989C56.5384 10.9833 57.3874 11.0372 58.208 10.9038C59.8634 10.6312 60.8118 9.16316 60.5591 7.43107C60.3433 5.96304 59.6476 5.20489 58.1711 4.98057C57.4072 4.86415 56.6207 4.89823 55.8455 4.84995C55.5786 4.83292 55.4962 4.92946 55.4991 5.1907C55.5104 6.10218 55.5048 7.01366 55.5048 7.92798V7.92514Z" fill="#A5A5A5"/>
<path d="M23.3843 0.636108H28.8759C28.8815 0.746849 28.8929 0.85759 28.8929 0.97117C28.8844 5.06574 28.8503 9.16031 28.8815 13.2549C28.8872 14.155 29.0519 15.075 29.2791 15.9496C29.7788 17.8691 31.3604 18.3234 32.9051 18.1473C34.5748 17.9571 35.3698 16.8525 35.6282 15.163C35.7645 14.2657 35.7957 13.3486 35.8014 12.4399C35.8185 8.54413 35.8071 4.64833 35.8043 0.749689C35.8043 0.726973 35.8156 0.704257 35.827 0.650306H41.3072C41.3129 0.721294 41.3271 0.8008 41.3271 0.877466C41.3243 5.6166 41.3385 10.3557 41.3015 15.0949C41.2873 16.7702 40.8387 18.3461 39.8392 19.7403C38.7687 21.2339 37.2865 22.1255 35.5317 22.5514C32.9278 23.1846 30.3325 23.1647 27.8338 22.0886C25.3918 21.038 23.9976 19.1355 23.5348 16.5629C23.4183 15.9212 23.3587 15.2624 23.3559 14.6093C23.3417 9.97524 23.3502 5.34401 23.3502 0.709936C23.3502 0.698578 23.3587 0.68722 23.3814 0.636108H23.3843Z" fill="#A5A5A5"/>
<path d="M113.075 22.2959C112.956 22.3016 112.876 22.3101 112.794 22.3101C111.082 22.3101 109.37 22.3016 107.657 22.3186C107.362 22.3186 107.231 22.2164 107.16 21.9523C106.93 21.1061 106.681 20.2656 106.462 19.4166C106.399 19.1753 106.309 19.1043 106.059 19.1043C103.461 19.1128 100.862 19.1128 98.2642 19.1014C97.9434 19.1014 97.7645 19.1327 97.6793 19.5047C97.4947 20.3111 97.2335 21.1005 97.0177 21.904C96.9353 22.2164 96.7706 22.3214 96.4384 22.3158C94.8085 22.2987 93.1787 22.3072 91.5488 22.3072C91.421 22.3072 91.2932 22.3072 91.1172 22.3072C91.3784 21.5633 91.6283 20.8619 91.8725 20.1577C93.7352 14.7684 95.5979 9.37897 97.4606 3.98959C97.8383 2.89638 98.2216 1.80317 98.5936 0.709963C98.6646 0.49984 98.7555 0.389099 99.0139 0.389099C101.033 0.403297 103.052 0.403297 105.073 0.389099C105.389 0.389099 105.519 0.494161 105.619 0.78379C106.896 4.50922 108.188 8.22898 109.475 11.9516C110.582 15.1545 111.692 18.3547 112.802 21.5576C112.885 21.7961 112.976 22.0347 113.072 22.2902L113.075 22.2959ZM102.163 4.98342C102.126 4.97206 102.086 4.95786 102.049 4.94651C101.016 8.27157 100.076 11.625 99.0792 14.9842H105.099C104.116 11.6335 103.14 8.30848 102.163 4.98342Z" fill="#A5A5A5"/>
<path d="M10.4355 6.66997C10.3929 6.43145 10.3674 6.19861 10.3078 5.97429C9.94431 4.58009 8.69776 3.8333 7.19282 4.15133C6.77826 4.23935 6.36369 4.42108 6.00307 4.6454C5.11431 5.18775 4.80764 6.9312 6.01443 7.66096C6.60221 8.0159 7.24961 8.28565 7.89134 8.54404C9.34233 9.12614 10.8302 9.62306 12.2613 10.2506C13.6357 10.8526 14.7232 11.8208 15.3223 13.2292C16.5149 16.029 15.6886 20.1207 12.108 21.8244C10.3191 22.6763 8.43653 22.8836 6.48579 22.6961C5.15974 22.5684 3.92171 22.1936 2.81147 21.4524C1.25826 20.416 0.443317 18.9253 0.14233 17.125C0.0968974 16.8496 0.0628234 16.5685 0.0117122 16.2931C-0.0308803 16.0773 0.0401073 15.9977 0.267268 15.9977C1.77789 16.0034 3.29134 15.9977 4.80196 16.0119C4.90134 16.0119 5.08023 16.1369 5.08875 16.2192C5.20801 17.3721 6.19616 18.2239 7.38875 18.3347C8.32863 18.4227 9.24579 18.3631 9.99542 17.7213C10.8558 16.9859 10.8643 15.8189 10.0522 15.0323C9.50418 14.5042 8.81702 14.2202 8.12418 13.9533C6.97134 13.5103 5.79295 13.1327 4.64863 12.667C3.27998 12.1105 2.03344 11.3608 1.18159 10.1058C0.579613 9.21985 0.301342 8.22602 0.218996 7.17256C0.128132 5.99701 0.30986 4.86404 0.823811 3.79355C1.62455 2.10972 2.97048 1.02787 4.73665 0.479847C6.99406 -0.221511 9.26282 -0.150524 11.4748 0.667254C13.8912 1.55886 15.0469 3.40738 15.3025 5.88343C15.311 5.95441 15.311 6.02256 15.3167 6.09355C15.3592 6.70688 15.3592 6.70972 14.7232 6.70972C13.3659 6.70972 12.0086 6.70404 10.6485 6.7012C10.5804 6.7012 10.5122 6.68417 10.4355 6.67281V6.66997Z" fill="#A5A5A5"/>
<path d="M133.994 6.77796C131.975 4.5887 128.809 4.40981 126.622 5.53425C124.853 6.44289 123.888 7.95351 123.519 9.86166C123.212 11.4518 123.34 13.0135 124.021 14.4929C124.848 16.2818 126.25 17.4346 128.207 17.7668C130.209 18.1076 132.094 17.8094 133.613 16.2988C133.696 16.2165 133.775 16.1285 133.855 16.0404C133.926 15.9638 133.991 15.8843 134.088 15.7764C134.235 15.9325 134.363 16.0773 134.502 16.2136C135.493 17.2018 136.478 18.1928 137.481 19.1667C137.657 19.3399 137.64 19.428 137.478 19.5841C135.536 21.444 133.216 22.4605 130.527 22.6707C128.46 22.8325 126.435 22.6536 124.533 21.8075C121.037 20.2486 118.845 17.6022 118.081 13.8625C117.459 10.8129 117.865 7.8882 119.512 5.21623C121.1 2.6408 123.434 1.00524 126.407 0.346476C128.962 -0.218586 131.495 -0.0879687 133.948 0.888821C135.206 1.39141 136.336 2.10981 137.33 3.02697C137.472 3.15759 137.62 3.28536 137.41 3.48697C136.274 4.57734 135.144 5.67055 133.997 6.77796H133.994Z" fill="#A5A5A5"/>
<path d="M144.756 1.11597C145.219 1.11597 145.642 1.11597 146.068 1.11597C149.586 1.11597 153.107 1.11881 156.625 1.11029C156.954 1.11029 157.071 1.18128 157.065 1.53054C157.04 2.72313 157.051 3.91856 157.048 5.11115C157.048 5.1793 157.04 5.24745 157.031 5.34115H150.228V9.81622C150.347 9.82473 150.449 9.83609 150.551 9.83609C152.607 9.83609 154.66 9.83041 156.716 9.82757C156.881 9.82757 157.057 9.78782 157.054 10.0519C157.048 11.3723 157.054 12.6955 157.054 14.0556H150.225C150.211 14.3225 150.188 14.5554 150.188 14.7854C150.191 15.9666 150.208 17.1507 150.205 18.3319C150.205 18.5846 150.293 18.6442 150.534 18.6414C152.613 18.6272 154.691 18.6244 156.77 18.6158C156.934 18.6158 157.074 18.6045 157.074 18.8402C157.068 20.2202 157.074 21.6002 157.074 23.0029H144.762V1.11597H144.756Z" fill="#A5A5A5"/>
<path d="M79.6049 22.2987H74.1758V0.41748H86.4311V4.63699C86.3317 4.63699 86.2295 4.63699 86.1301 4.63699C84.0516 4.63699 81.9731 4.63699 79.8974 4.62847C79.7242 4.62847 79.5992 4.63699 79.5992 4.86131C79.6049 6.26402 79.5992 7.6639 79.5992 9.10353H86.4311V13.3486C86.2721 13.3486 86.1131 13.3486 85.9512 13.3486C83.955 13.3543 81.9617 13.3656 79.9655 13.3543C79.6674 13.3543 79.6106 13.4451 79.6134 13.7092C79.622 16.4948 79.622 19.2775 79.6248 22.063C79.6248 22.1312 79.6134 22.1993 79.6049 22.2959V22.2987Z" fill="#A5A5A5"/>
</svg>
